<svg width="1461" height="406" viewBox="0 0 1461 406" fill="none" xmlns="http://www.w3.org/2000/svg">
<path d="M258.73 221.683L206.138 193.883L114.846 145.633C114.763 145.549 114.596 145.549 114.513 145.549C111.18 143.966 107.763 147.299 109.013 150.633L155.53 269.275L155.538 269.3C155.588 269.416 155.63 269.533 155.68 269.65C157.588 274.075 161.755 276.808 166.288 277.883C166.672 277.966 166.946 278.042 167.406 278.134C167.864 278.236 168.505 278.375 169.055 278.416C169.147 278.425 169.23 278.425 169.322 278.433H169.388C169.455 278.441 169.522 278.441 169.588 278.45H169.68C169.738 278.458 169.805 278.458 169.863 278.458H169.972C170.038 278.466 170.105 278.466 170.172 278.466V278.466C229.083 284.889 288.519 284.889 347.43 278.466V278.466C348.139 278.466 348.83 278.433 349.497 278.366C349.714 278.341 349.922 278.316 350.13 278.291C350.155 278.283 350.189 278.283 350.214 278.275C350.355 278.258 350.497 278.233 350.639 278.208C350.847 278.183 351.055 278.141 351.264 278.1C351.68 278.008 351.87 277.941 352.435 277.747C353.001 277.553 353.939 277.213 354.527 276.93C355.114 276.646 355.522 276.375 356.014 276.066C356.622 275.683 357.201 275.291 357.787 274.851C358.04 274.657 358.214 274.533 358.397 274.358L358.297 274.3L258.73 221.683Z" fill="#FF4B4B"/>
<path d="M402.766 145.634H402.683L311.357 193.884L362.124 269.493L408.524 150.634V150.467C409.691 146.967 406.108 143.801 402.766 145.634" fill="#7D353B"/>
<path d="M263.597 122.691C261.264 119.283 256.18 119.283 253.93 122.691L206.139 193.883L258.73 221.684L358.398 274.358C359.023 273.745 359.525 273.148 360.056 272.517C360.806 271.592 361.506 270.6 362.123 269.492L311.356 193.883L263.597 122.691Z" fill="#BD4043"/>
<path d="M583.705 163.429H602.096C601.253 139.75 579.413 122.048 549.067 122.048C519.027 122.048 495.425 139.52 495.425 165.881C495.425 187.032 510.751 199.599 535.273 206.649L554.585 212.167C571.137 216.765 585.85 222.589 585.85 238.222C585.85 255.387 569.298 266.729 547.534 266.729C528.836 266.729 512.284 258.453 510.751 240.674H491.133C492.972 266.422 513.816 283.894 547.534 283.894C583.705 283.894 604.242 263.97 604.242 238.528C604.242 209.102 576.348 199.599 560.102 195.308L544.163 191.016C532.514 187.951 513.816 181.821 513.816 164.962C513.816 149.942 527.61 138.907 548.454 138.907C567.459 138.907 581.866 147.949 583.705 163.429ZM679.911 163.429H654.776V135.228H636.69V163.429H618.912V178.755H636.69V252.322C636.69 272.859 653.243 282.668 668.569 282.668C675.313 282.668 679.604 281.442 682.057 280.523L678.378 264.277C676.846 264.583 674.393 265.196 670.408 265.196C662.439 265.196 654.776 262.744 654.776 247.418V178.755H679.911V163.429ZM702.799 281.136H720.884V206.649C720.884 190.71 733.452 179.062 750.618 179.062C755.446 179.062 760.427 179.981 761.653 180.288V161.896C759.584 161.743 754.832 161.59 752.15 161.59C738.05 161.59 725.789 169.559 721.498 181.208H720.271V163.429H702.799V281.136ZM824.543 283.588C848.452 283.588 865.924 271.633 871.442 253.855L853.97 248.95C849.372 261.211 838.72 267.342 824.543 267.342C803.316 267.342 788.679 253.625 787.836 228.413H873.281V220.75C873.281 176.916 847.226 161.896 822.704 161.896C790.825 161.896 769.675 187.032 769.675 223.202C769.675 259.372 790.518 283.588 824.543 283.588ZM787.836 212.78C789.062 194.465 802.013 178.142 822.704 178.142C842.322 178.142 854.889 192.856 854.889 212.78H787.836ZM931.114 283.894C951.651 283.894 962.38 272.859 966.058 265.196H966.978V281.136H985.063V203.584C985.063 166.188 956.556 161.896 941.536 161.896C923.757 161.896 903.526 168.027 894.33 189.484L911.496 195.614C915.481 187.032 924.907 177.836 942.149 177.836C958.778 177.836 966.978 186.648 966.978 201.745V202.358C966.978 211.094 958.088 210.328 936.631 213.086C914.791 215.922 890.959 220.75 890.959 247.724C890.959 270.714 908.737 283.894 931.114 283.894ZM933.873 267.649C919.466 267.649 909.044 261.211 909.044 248.644C909.044 234.85 921.611 230.559 935.712 228.719C943.375 227.8 963.912 225.654 966.978 221.976V238.528C966.978 253.242 955.329 267.649 933.873 267.649ZM1013.76 281.136H1031.84V207.569C1031.84 190.327 1044.41 178.142 1058.51 178.142C1072.23 178.142 1081.81 187.108 1081.81 200.519V281.136H1100.2V204.504C1100.2 189.331 1109.7 178.142 1126.25 178.142C1139.13 178.142 1150.16 184.963 1150.16 202.358V281.136H1168.25V202.358C1168.25 174.694 1153.38 161.896 1132.38 161.896C1115.52 161.896 1103.19 169.636 1097.13 181.821H1095.91C1090.08 169.253 1079.81 161.896 1064.33 161.896C1049.01 161.896 1037.67 169.253 1032.76 181.821H1031.23V163.429H1013.76V281.136ZM1215.08 124.193H1197V281.136H1215.08V124.193ZM1243.89 281.136H1261.98V163.429H1243.89V281.136ZM1253.09 143.811C1260.14 143.811 1265.96 138.294 1265.96 131.55C1265.96 124.806 1260.14 119.289 1253.09 119.289C1246.04 119.289 1240.21 124.806 1240.21 131.55C1240.21 138.294 1246.04 143.811 1253.09 143.811ZM1341.97 163.429H1316.84V135.228H1298.75V163.429H1280.98V178.755H1298.75V252.322C1298.75 272.859 1315.31 282.668 1330.63 282.668C1337.38 282.668 1341.67 281.442 1344.12 280.523L1340.44 264.277C1338.91 264.583 1336.46 265.196 1332.47 265.196C1324.5 265.196 1316.84 262.744 1316.84 247.418V178.755H1341.97V163.429Z" fill="#262730"/>
</svg>
